<svg width="62" height="62" viewBox="0 0 62 62" fill="none" xmlns="http://www.w3.org/2000/svg">
<g filter="url(#filter0_d_4128_52223)">
<rect x="10" y="10" width="40" height="40" rx="20" fill="white"/>
</g>
<path d="M30 49V46.9146M30 13.0854V11M11 29.9997H13.0854M46.9146 29.9997H49M16.5648 43.4351L18.0394 41.9605M41.9603 18.0396L43.4348 16.565M16.5648 16.565L18.0394 18.0396M41.9603 41.9605L43.4348 43.435M20.5 13.5455L21.0213 14.4485M38.9787 45.5515L39.5 46.4545M39.5 13.5455L38.9787 14.4485M21.0213 45.5515L20.5 46.4545M34.9175 11.6476L34.6476 12.6547M25.3523 47.3456L25.0824 48.3527M25.0825 11.6476L25.3524 12.6547M34.6477 47.3456L34.9176 48.3527M11.6473 25.0823L12.6544 25.3522M47.3453 34.6476L48.3524 34.9174M11.6473 34.9177L12.6544 34.6479M47.3453 25.3525L48.3524 25.0826M13.5453 20.5002L14.4483 21.0215M45.5513 38.9788L46.4543 39.5002M13.5459 39.4999L14.4489 38.9785M45.5519 21.0212L46.4549 20.4999" stroke="#B7B7B7" stroke-width="0.3" stroke-linecap="round"/>
<path d="M19 24.4351C19.6111 23.5028 21.42 21.7182 23.7667 22.0378" stroke="url(#paint0_linear_4128_52223)" stroke-width="0.8" stroke-linecap="round"/>
<path d="M41.7334 24.4351C41.1223 23.5028 39.3134 21.7182 36.9667 22.0378" stroke="url(#paint1_linear_4128_52223)" stroke-width="0.8" stroke-linecap="round"/>
<path d="M28.167 38.0195C28.2892 38.8186 28.9737 40.4168 30.7337 40.4168C32.4937 40.4168 33.1781 38.8186 33.3003 38.0195" stroke="url(#paint2_linear_4128_52223)" stroke-width="0.8" stroke-linecap="round"/>
<g filter="url(#filter1_d_4128_52223)">
<ellipse cx="37.3331" cy="29.6286" rx="4.03333" ry="4.79459" fill="white"/>
</g>
<g filter="url(#filter2_d_4128_52223)">
<ellipse rx="4.03333" ry="4.79459" transform="matrix(1 0 0 -1 23.3995 29.6292)" fill="white"/>
</g>
<ellipse rx="2.93865" ry="3.59045" transform="matrix(0.988477 -0.151374 0.12791 0.991786 37.3972 29.5487)" fill="url(#paint3_linear_4128_52223)"/>
<ellipse rx="2.93865" ry="3.59045" transform="matrix(0.988477 0.151374 0.12791 -0.991786 23.4637 29.7091)" fill="url(#paint4_linear_4128_52223)"/>
<ellipse cx="30.3798" cy="31.0891" rx="0.619095" ry="1.01192" fill="#295CE0"/>
<defs>
<filter id="filter0_d_4128_52223" x="0" y="0" width="62" height="62" filterUnits="userSpaceOnUse" color-interpolation-filters="sRGB">
<feFlood flood-opacity="0" result="BackgroundImageFix"/>
<feColorMatrix in="SourceAlpha" type="matrix" values="0 0 0 0 0 0 0 0 0 0 0 0 0 0 0 0 0 0 127 0" result="hardAlpha"/>
<feOffset dx="1" dy="1"/>
<feGaussianBlur stdDeviation="5.5"/>
<feComposite in2="hardAlpha" operator="out"/>
<feColorMatrix type="matrix" values="0 0 0 0 0 0 0 0 0 0 0 0 0 0 0 0 0 0 0.28 0"/>
<feBlend mode="normal" in2="BackgroundImageFix" result="effect1_dropShadow_4128_52223"/>
<feBlend mode="normal" in="SourceGraphic" in2="effect1_dropShadow_4128_52223" result="shape"/>
</filter>
<filter id="filter1_d_4128_52223" x="31.2998" y="22.834" width="12.0664" height="13.5889" filterUnits="userSpaceOnUse" color-interpolation-filters="sRGB">
<feFlood flood-opacity="0" result="BackgroundImageFix"/>
<feColorMatrix in="SourceAlpha" type="matrix" values="0 0 0 0 0 0 0 0 0 0 0 0 0 0 0 0 0 0 127 0" result="hardAlpha"/>
<feOffset/>
<feGaussianBlur stdDeviation="1"/>
<feComposite in2="hardAlpha" operator="out"/>
<feColorMatrix type="matrix" values="0 0 0 0 0 0 0 0 0 0 0 0 0 0 0 0 0 0 0.25 0"/>
<feBlend mode="normal" in2="BackgroundImageFix" result="effect1_dropShadow_4128_52223"/>
<feBlend mode="normal" in="SourceGraphic" in2="effect1_dropShadow_4128_52223" result="shape"/>
</filter>
<filter id="filter2_d_4128_52223" x="17.3662" y="22.835" width="12.0664" height="13.5889" filterUnits="userSpaceOnUse" color-interpolation-filters="sRGB">
<feFlood flood-opacity="0" result="BackgroundImageFix"/>
<feColorMatrix in="SourceAlpha" type="matrix" values="0 0 0 0 0 0 0 0 0 0 0 0 0 0 0 0 0 0 127 0" result="hardAlpha"/>
<feOffset/>
<feGaussianBlur stdDeviation="1"/>
<feComposite in2="hardAlpha" operator="out"/>
<feColorMatrix type="matrix" values="0 0 0 0 0 0 0 0 0 0 0 0 0 0 0 0 0 0 0.25 0"/>
<feBlend mode="normal" in2="BackgroundImageFix" result="effect1_dropShadow_4128_52223"/>
<feBlend mode="normal" in="SourceGraphic" in2="effect1_dropShadow_4128_52223" result="shape"/>
</filter>
<linearGradient id="paint0_linear_4128_52223" x1="21.3833" y1="22" x2="21.3833" y2="24.4351" gradientUnits="userSpaceOnUse">
<stop stop-color="#262F40"/>
<stop offset="1" stop-color="#656972"/>
</linearGradient>
<linearGradient id="paint1_linear_4128_52223" x1="39.3501" y1="22" x2="39.3501" y2="24.4351" gradientUnits="userSpaceOnUse">
<stop stop-color="#262F40"/>
<stop offset="1" stop-color="#656972"/>
</linearGradient>
<linearGradient id="paint2_linear_4128_52223" x1="30.7337" y1="38.0195" x2="30.7337" y2="40.4168" gradientUnits="userSpaceOnUse">
<stop stop-color="#262F40"/>
<stop offset="1" stop-color="#656972"/>
</linearGradient>
<linearGradient id="paint3_linear_4128_52223" x1="2.93865" y1="0" x2="2.93865" y2="7.18089" gradientUnits="userSpaceOnUse">
<stop stop-color="#262F40"/>
<stop offset="1" stop-color="#101929"/>
</linearGradient>
<linearGradient id="paint4_linear_4128_52223" x1="2.93865" y1="0" x2="2.93865" y2="7.18089" gradientUnits="userSpaceOnUse">
<stop stop-color="#262F40"/>
<stop offset="1" stop-color="#101929"/>
</linearGradient>
</defs>
</svg>
