<svg width="82" height="82" viewBox="0 0 82 82" fill="none" xmlns="http://www.w3.org/2000/svg">
<g filter="url(#filter0_d_4071_45564)">
<rect x="10" y="10" width="60" height="60" rx="25" fill="white"/>
</g>
<path d="M39.3 68C39.3 68.1105 39.3895 68.2 39.5 68.2C39.6105 68.2 39.7 68.1105 39.7 68H39.3ZM39.7 64.9817C39.7 64.8713 39.6105 64.7817 39.5 64.7817C39.3895 64.7817 39.3 64.8713 39.3 64.9817H39.7ZM39.3 16.0183C39.3 16.1287 39.3895 16.2183 39.5 16.2183C39.6105 16.2183 39.7 16.1287 39.7 16.0183H39.3ZM39.7 13C39.7 12.8895 39.6105 12.8 39.5 12.8C39.3895 12.8 39.3 12.8895 39.3 13H39.7ZM39.7 68V64.9817H39.3V68H39.7ZM39.7 16.0183V13H39.3V16.0183H39.7Z" fill="#4B4061"/>
<path d="M12 40.3C11.8895 40.3 11.8 40.3895 11.8 40.5C11.8 40.6105 11.8895 40.7 12 40.7L12 40.3ZM15.0183 40.7C15.1287 40.7 15.2183 40.6105 15.2183 40.5C15.2183 40.3895 15.1287 40.3 15.0183 40.3L15.0183 40.7ZM63.9817 40.3C63.8713 40.3 63.7817 40.3895 63.7817 40.5C63.7817 40.6105 63.8713 40.7 63.9817 40.7L63.9817 40.3ZM67 40.7C67.1105 40.7 67.2 40.6105 67.2 40.5C67.2 40.3895 67.1105 40.3 67 40.3L67 40.7ZM12 40.7L15.0183 40.7L15.0183 40.3L12 40.3L12 40.7ZM63.9817 40.7L67 40.7L67 40.3L63.9817 40.3L63.9817 40.7Z" fill="#4B4061"/>
<path d="M19.913 59.8041C19.8349 59.8822 19.8349 60.0089 19.913 60.087C19.9911 60.1651 20.1178 60.1651 20.1959 60.087L19.913 59.8041ZM22.3301 57.9527C22.4082 57.8746 22.4082 57.748 22.3301 57.6699C22.252 57.5918 22.1254 57.5918 22.0473 57.6699L22.3301 57.9527ZM56.6696 23.0475C56.5915 23.1256 56.5915 23.2523 56.6696 23.3304C56.7477 23.4085 56.8744 23.4085 56.9525 23.3304L56.6696 23.0475ZM59.0867 21.1961C59.1648 21.118 59.1648 20.9914 59.0867 20.9133C59.0086 20.8352 58.882 20.8352 58.8039 20.9133L59.0867 21.1961ZM20.1959 60.087L22.3301 57.9527L22.0473 57.6699L19.913 59.8041L20.1959 60.087ZM56.9525 23.3304L59.0867 21.1961L58.8039 20.9133L56.6696 23.0475L56.9525 23.3304Z" fill="#4B4061"/>
<path d="M20.1959 20.913C20.1178 20.8349 19.9911 20.8349 19.913 20.913C19.8349 20.9911 19.8349 21.1177 19.913 21.1959L20.1959 20.913ZM22.0473 23.3301C22.1254 23.4082 22.252 23.4082 22.3301 23.3301C22.4082 23.252 22.4082 23.1254 22.3301 23.0473L22.0473 23.3301ZM56.9525 57.6696C56.8744 57.5915 56.7477 57.5915 56.6696 57.6696C56.5915 57.7477 56.5915 57.8744 56.6696 57.9525L56.9525 57.6696ZM58.8039 60.0867C58.882 60.1648 59.0086 60.1648 59.0867 60.0867C59.1648 60.0086 59.1648 59.882 59.0867 59.8039L58.8039 60.0867ZM19.913 21.1959L22.0473 23.3301L22.3301 23.0473L20.1959 20.913L19.913 21.1959ZM56.6696 57.9525L58.8039 60.0867L59.0867 59.8039L56.9525 57.6696L56.6696 57.9525Z" fill="#4B4061"/>
<path d="M39.3 68C39.3 68.1105 39.3895 68.2 39.5 68.2C39.6105 68.2 39.7 68.1105 39.7 68H39.3ZM39.7 64.9817C39.7 64.8713 39.6105 64.7817 39.5 64.7817C39.3895 64.7817 39.3 64.8713 39.3 64.9817H39.7ZM39.3 16.0183C39.3 16.1287 39.3895 16.2183 39.5 16.2183C39.6105 16.2183 39.7 16.1287 39.7 16.0183H39.3ZM39.7 13C39.7 12.8895 39.6105 12.8 39.5 12.8C39.3895 12.8 39.3 12.8895 39.3 13H39.7ZM39.7 68V64.9817H39.3V68H39.7ZM39.7 16.0183V13H39.3V16.0183H39.7Z" fill="#4B4061"/>
<path d="M12 40.3C11.8895 40.3 11.8 40.3895 11.8 40.5C11.8 40.6105 11.8895 40.7 12 40.7L12 40.3ZM15.0183 40.7C15.1287 40.7 15.2183 40.6105 15.2183 40.5C15.2183 40.3895 15.1287 40.3 15.0183 40.3L15.0183 40.7ZM63.9817 40.3C63.8713 40.3 63.7817 40.3895 63.7817 40.5C63.7817 40.6105 63.8713 40.7 63.9817 40.7L63.9817 40.3ZM67 40.7C67.1105 40.7 67.2 40.6105 67.2 40.5C67.2 40.3895 67.1105 40.3 67 40.3L67 40.7ZM12 40.7L15.0183 40.7L15.0183 40.3L12 40.3L12 40.7ZM63.9817 40.7L67 40.7L67 40.3L63.9817 40.3L63.9817 40.7Z" fill="#4B4061"/>
<path d="M19.913 59.8041C19.8349 59.8822 19.8349 60.0089 19.913 60.087C19.9911 60.1651 20.1178 60.1651 20.1959 60.087L19.913 59.8041ZM22.3301 57.9527C22.4082 57.8746 22.4082 57.748 22.3301 57.6699C22.252 57.5918 22.1254 57.5918 22.0473 57.6699L22.3301 57.9527ZM56.6696 23.0475C56.5915 23.1256 56.5915 23.2523 56.6696 23.3304C56.7477 23.4085 56.8744 23.4085 56.9525 23.3304L56.6696 23.0475ZM59.0867 21.1961C59.1648 21.118 59.1648 20.9914 59.0867 20.9133C59.0086 20.8352 58.882 20.8352 58.8039 20.9133L59.0867 21.1961ZM20.1959 60.087L22.3301 57.9527L22.0473 57.6699L19.913 59.8041L20.1959 60.087ZM56.9525 23.3304L59.0867 21.1961L58.8039 20.9133L56.6696 23.0475L56.9525 23.3304Z" fill="#4B4061"/>
<path d="M20.1959 20.913C20.1178 20.8349 19.9911 20.8349 19.913 20.913C19.8349 20.9911 19.8349 21.1177 19.913 21.1959L20.1959 20.913ZM22.0473 23.3301C22.1254 23.4082 22.252 23.4082 22.3301 23.3301C22.4082 23.252 22.4082 23.1254 22.3301 23.0473L22.0473 23.3301ZM56.9525 57.6696C56.8744 57.5915 56.7477 57.5915 56.6696 57.6696C56.5915 57.7477 56.5915 57.8744 56.6696 57.9525L56.9525 57.6696ZM58.8039 60.0867C58.882 60.1648 59.0086 60.1648 59.0867 60.0867C59.1648 60.0086 59.1648 59.882 59.0867 59.8039L58.8039 60.0867ZM19.913 21.1959L22.0473 23.3301L22.3301 23.0473L20.1959 20.913L19.913 21.1959ZM56.6696 57.9525L58.8039 60.0867L59.0867 59.8039L56.9525 57.6696L56.6696 57.9525Z" fill="#4B4061"/>
<path d="M25.9232 16.584C25.868 16.4884 25.7457 16.4556 25.65 16.5108C25.5543 16.5661 25.5216 16.6884 25.5768 16.784L25.9232 16.584ZM53.0768 64.4154C53.132 64.5111 53.2543 64.5439 53.35 64.4886C53.4457 64.4334 53.4784 64.3111 53.4232 64.2154L53.0768 64.4154ZM26.3314 18.091C26.3866 18.1867 26.5089 18.2194 26.6046 18.1642C26.7002 18.109 26.733 17.9867 26.6778 17.891L26.3314 18.091ZM52.6686 62.9085C52.6134 62.8128 52.4911 62.78 52.3954 62.8353C52.2998 62.8905 52.267 63.0128 52.3222 63.1085L52.6686 62.9085ZM25.5768 16.784L26.3314 18.091L26.6778 17.891L25.9232 16.584L25.5768 16.784ZM52.3222 63.1085L53.0768 64.4154L53.4232 64.2154L52.6686 62.9085L52.3222 63.1085Z" fill="#D3C8EA"/>
<path d="M53.0768 16.584C53.132 16.4884 53.2543 16.4556 53.35 16.5108C53.4457 16.566 53.4784 16.6884 53.4232 16.784L53.0768 16.584ZM25.9232 64.4154C25.868 64.5111 25.7457 64.5439 25.65 64.4886C25.5543 64.4334 25.5216 64.3111 25.5768 64.2154L25.9232 64.4154ZM52.6686 18.091C52.6134 18.1866 52.4911 18.2194 52.3954 18.1642C52.2998 18.109 52.267 17.9866 52.3222 17.891L52.6686 18.091ZM26.3314 62.9085C26.3866 62.8128 26.5089 62.78 26.6046 62.8353C26.7002 62.8905 26.733 63.0128 26.6778 63.1085L26.3314 62.9085ZM53.4232 16.784L52.6686 18.091L52.3222 17.891L53.0768 16.584L53.4232 16.784ZM26.6778 63.1085L25.9232 64.4154L25.5768 64.2154L26.3314 62.9085L26.6778 63.1085Z" fill="#D3C8EA"/>
<path d="M46.4247 13.8858C46.4533 13.7791 46.5629 13.7158 46.6696 13.7444C46.7763 13.773 46.8396 13.8826 46.811 13.9893L46.4247 13.8858ZM32.576 67.1152C32.5474 67.2219 32.4377 67.2853 32.331 67.2567C32.2244 67.2281 32.161 67.1184 32.1896 67.0117L32.576 67.1152ZM46.4204 15.447C46.3919 15.5537 46.2822 15.6171 46.1755 15.5885C46.0688 15.5599 46.0055 15.4502 46.0341 15.3435L46.4204 15.447ZM32.5802 65.554C32.6088 65.4473 32.7185 65.384 32.8252 65.4126C32.9319 65.4412 32.9952 65.5508 32.9666 65.6575L32.5802 65.554ZM46.811 13.9893L46.4204 15.447L46.0341 15.3435L46.4247 13.8858L46.811 13.9893ZM32.9666 65.6575L32.576 67.1152L32.1896 67.0117L32.5802 65.554L32.9666 65.6575Z" fill="#D3C8EA"/>
<path d="M32.189 13.9893C32.1604 13.8826 32.2237 13.773 32.3304 13.7444C32.4371 13.7158 32.5467 13.7791 32.5753 13.8858L32.189 13.9893ZM46.8104 67.0117C46.839 67.1184 46.7756 67.2281 46.669 67.2567C46.5623 67.2853 46.4526 67.2219 46.424 67.1152L46.8104 67.0117ZM32.9659 15.3435C32.9945 15.4502 32.9312 15.5599 32.8245 15.5885C32.7178 15.6171 32.6081 15.5537 32.5795 15.447L32.9659 15.3435ZM46.0334 65.6575C46.0048 65.5508 46.0681 65.4412 46.1748 65.4126C46.2815 65.384 46.3912 65.4473 46.4198 65.554L46.0334 65.6575ZM32.5753 13.8858L32.9659 15.3435L32.5795 15.447L32.189 13.9893L32.5753 13.8858ZM46.4198 65.554L46.8104 67.0117L46.424 67.1152L46.0334 65.6575L46.4198 65.554Z" fill="#D3C8EA"/>
<path d="M12.8848 33.5753C12.7781 33.5467 12.7148 33.4371 12.7434 33.3304C12.772 33.2237 12.8817 33.1604 12.9884 33.189L12.8848 33.5753ZM66.1143 47.424C66.221 47.4526 66.2843 47.5623 66.2557 47.669C66.2271 47.7756 66.1174 47.839 66.0107 47.8104L66.1143 47.424ZM14.4461 33.5795C14.5528 33.6081 14.6161 33.7178 14.5875 33.8245C14.5589 33.9312 14.4492 33.9945 14.3425 33.9659L14.4461 33.5795ZM64.553 47.4198C64.4463 47.3912 64.383 47.2815 64.4116 47.1748C64.4402 47.0681 64.5498 47.0048 64.6565 47.0334L64.553 47.4198ZM12.9884 33.189L14.4461 33.5795L14.3425 33.9659L12.8848 33.5753L12.9884 33.189ZM64.6565 47.0334L66.1143 47.424L66.0107 47.8104L64.553 47.4198L64.6565 47.0334Z" fill="#D3C8EA"/>
<path d="M12.9884 47.811C12.8817 47.8396 12.772 47.7763 12.7434 47.6696C12.7148 47.5629 12.7781 47.4533 12.8848 47.4247L12.9884 47.811ZM66.0107 33.1896C66.1174 33.161 66.2271 33.2244 66.2557 33.331C66.2843 33.4377 66.221 33.5474 66.1143 33.576L66.0107 33.1896ZM14.3425 47.0341C14.4492 47.0055 14.5589 47.0688 14.5875 47.1755C14.6161 47.2822 14.5528 47.3919 14.4461 47.4204L14.3425 47.0341ZM64.6565 33.9666C64.5498 33.9952 64.4402 33.9319 64.4116 33.8252C64.383 33.7185 64.4463 33.6088 64.553 33.5802L64.6565 33.9666ZM12.8848 47.4247L14.3425 47.0341L14.4461 47.4204L12.9884 47.811L12.8848 47.4247ZM64.553 33.5802L66.0107 33.1896L66.1143 33.576L64.6565 33.9666L64.553 33.5802Z" fill="#D3C8EA"/>
<path d="M15.584 26.9232C15.4884 26.868 15.4556 26.7457 15.5108 26.65C15.5661 26.5543 15.6884 26.5216 15.784 26.5768L15.584 26.9232ZM63.4154 54.0768C63.5111 54.132 63.5439 54.2543 63.4886 54.35C63.4334 54.4457 63.3111 54.4784 63.2154 54.4232L63.4154 54.0768ZM17.091 27.3314C17.1866 27.3866 17.2194 27.5089 17.1642 27.6046C17.109 27.7002 16.9866 27.733 16.891 27.6778L17.091 27.3314ZM61.9085 53.6686C61.8128 53.6134 61.78 53.4911 61.8353 53.3954C61.8905 53.2998 62.0128 53.267 62.1085 53.3222L61.9085 53.6686ZM15.784 26.5768L17.091 27.3314L16.891 27.6778L15.584 26.9232L15.784 26.5768ZM62.1085 53.3222L63.4154 54.0768L63.2154 54.4232L61.9085 53.6686L62.1085 53.3222Z" fill="#D3C8EA"/>
<path d="M15.585 54.0768C15.4893 54.132 15.4566 54.2543 15.5118 54.35C15.567 54.4457 15.6893 54.4784 15.785 54.4232L15.585 54.0768ZM63.4164 26.9232C63.5121 26.868 63.5448 26.7457 63.4896 26.65C63.4344 26.5543 63.3121 26.5216 63.2164 26.5768L63.4164 26.9232ZM17.092 53.6686C17.1876 53.6134 17.2204 53.4911 17.1652 53.3954C17.1099 53.2998 16.9876 53.267 16.892 53.3222L17.092 53.6686ZM61.9094 27.3314C61.8138 27.3866 61.781 27.5089 61.8362 27.6046C61.8915 27.7002 62.0138 27.733 62.1094 27.6778L61.9094 27.3314ZM15.785 54.4232L17.092 53.6686L16.892 53.3222L15.585 54.0768L15.785 54.4232ZM62.1094 27.6778L63.4164 26.9232L63.2164 26.5768L61.9094 27.3314L62.1094 27.6778Z" fill="#D3C8EA"/>
<g filter="url(#filter1_d_4071_45564)">
<circle cx="46.7538" cy="40.8974" r="5.06533" fill="white"/>
</g>
<g filter="url(#filter2_d_4071_45564)">
<circle cx="30.7138" cy="38.3651" r="5.06533" fill="white"/>
</g>
<path fill-rule="evenodd" clip-rule="evenodd" d="M44.2216 44.2742C47.0191 44.2742 49.2869 42.0064 49.2869 39.2089C49.2869 38.0058 48.8675 36.9007 48.1668 36.0317C47.7183 35.9017 47.2442 35.832 46.7538 35.832C43.9563 35.832 41.6885 38.0999 41.6885 40.8974C41.6885 42.1004 42.1079 43.2056 42.8085 44.0745C43.257 44.2045 43.7312 44.2742 44.2216 44.2742Z" fill="url(#paint0_linear_4071_45564)"/>
<path fill-rule="evenodd" clip-rule="evenodd" d="M28.1815 41.742C30.979 41.742 33.2469 39.4742 33.2469 36.6767C33.2469 35.4736 32.8274 34.3684 32.1268 33.4995C31.6783 33.3695 31.2042 33.2998 30.7138 33.2998C27.9163 33.2998 25.6484 35.5676 25.6484 38.3651C25.6484 39.5682 26.0679 40.6734 26.7685 41.5423C27.217 41.6723 27.6911 41.742 28.1815 41.742Z" fill="url(#paint1_linear_4071_45564)"/>
<path d="M37.468 49.7076C37.6428 50.5303 38.726 51.9391 40.5798 51.6314C42.4336 51.3236 42.9555 50.1299 42.9555 49.2856" stroke="url(#paint2_linear_4071_45564)" stroke-linecap="round"/>
<ellipse cx="38.0187" cy="43.375" rx="0.844221" ry="1.26633" transform="rotate(8.30325 38.0187 43.375)" fill="#295CE0"/>
<path d="M45.0654 33.1723C45.9097 32.4018 47.5981 31.2091 50.1308 31.9796C52.5912 32.7282 53.5076 34.5794 53.5076 35.2829" stroke="url(#paint3_linear_4071_45564)" stroke-linecap="round"/>
<path d="M28.1816 31.1893C28.6038 30.7131 29.448 29.4468 31.9806 29.0788C34.0134 28.7835 36.2017 29.8688 36.6238 30.7672" stroke="url(#paint4_linear_4071_45564)" stroke-linecap="round"/>
<defs>
<filter id="filter0_d_4071_45564" x="0" y="0" width="82" height="82" filterUnits="userSpaceOnUse" color-interpolation-filters="sRGB">
<feFlood flood-opacity="0" result="BackgroundImageFix"/>
<feColorMatrix in="SourceAlpha" type="matrix" values="0 0 0 0 0 0 0 0 0 0 0 0 0 0 0 0 0 0 127 0" result="hardAlpha"/>
<feOffset dx="1" dy="1"/>
<feGaussianBlur stdDeviation="5.5"/>
<feComposite in2="hardAlpha" operator="out"/>
<feColorMatrix type="matrix" values="0 0 0 0 0 0 0 0 0 0 0 0 0 0 0 0 0 0 0.28 0"/>
<feBlend mode="normal" in2="BackgroundImageFix" result="effect1_dropShadow_4071_45564"/>
<feBlend mode="normal" in="SourceGraphic" in2="effect1_dropShadow_4071_45564" result="shape"/>
</filter>
<filter id="filter1_d_4071_45564" x="39.6885" y="33.832" width="14.1309" height="14.1309" filterUnits="userSpaceOnUse" color-interpolation-filters="sRGB">
<feFlood flood-opacity="0" result="BackgroundImageFix"/>
<feColorMatrix in="SourceAlpha" type="matrix" values="0 0 0 0 0 0 0 0 0 0 0 0 0 0 0 0 0 0 127 0" result="hardAlpha"/>
<feOffset/>
<feGaussianBlur stdDeviation="1"/>
<feComposite in2="hardAlpha" operator="out"/>
<feColorMatrix type="matrix" values="0 0 0 0 0 0 0 0 0 0 0 0 0 0 0 0 0 0 0.25 0"/>
<feBlend mode="normal" in2="BackgroundImageFix" result="effect1_dropShadow_4071_45564"/>
<feBlend mode="normal" in="SourceGraphic" in2="effect1_dropShadow_4071_45564" result="shape"/>
</filter>
<filter id="filter2_d_4071_45564" x="23.6484" y="31.2998" width="14.1309" height="14.1309" filterUnits="userSpaceOnUse" color-interpolation-filters="sRGB">
<feFlood flood-opacity="0" result="BackgroundImageFix"/>
<feColorMatrix in="SourceAlpha" type="matrix" values="0 0 0 0 0 0 0 0 0 0 0 0 0 0 0 0 0 0 127 0" result="hardAlpha"/>
<feOffset/>
<feGaussianBlur stdDeviation="1"/>
<feComposite in2="hardAlpha" operator="out"/>
<feColorMatrix type="matrix" values="0 0 0 0 0 0 0 0 0 0 0 0 0 0 0 0 0 0 0.25 0"/>
<feBlend mode="normal" in2="BackgroundImageFix" result="effect1_dropShadow_4071_45564"/>
<feBlend mode="normal" in="SourceGraphic" in2="effect1_dropShadow_4071_45564" result="shape"/>
</filter>
<linearGradient id="paint0_linear_4071_45564" x1="45.4877" y1="35.832" x2="45.4877" y2="44.2742" gradientUnits="userSpaceOnUse">
<stop stop-color="#262F40"/>
<stop offset="1" stop-color="#101929"/>
</linearGradient>
<linearGradient id="paint1_linear_4071_45564" x1="29.4476" y1="33.2998" x2="29.4476" y2="41.742" gradientUnits="userSpaceOnUse">
<stop stop-color="#262F40"/>
<stop offset="1" stop-color="#101929"/>
</linearGradient>
<linearGradient id="paint2_linear_4071_45564" x1="40.5007" y1="51.9991" x2="39.0007" y2="48.9991" gradientUnits="userSpaceOnUse">
<stop stop-color="#262F40"/>
<stop offset="1" stop-color="#656972"/>
</linearGradient>
<linearGradient id="paint3_linear_4071_45564" x1="49.2865" y1="31.7305" x2="49.2865" y2="35.2829" gradientUnits="userSpaceOnUse">
<stop stop-color="#262F40"/>
<stop offset="1" stop-color="#656972"/>
</linearGradient>
<linearGradient id="paint4_linear_4071_45564" x1="32.4027" y1="29.0293" x2="32.4027" y2="31.1893" gradientUnits="userSpaceOnUse">
<stop stop-color="#262F40"/>
<stop offset="1" stop-color="#656972"/>
</linearGradient>
</defs>
</svg>
