<svg width="82" height="82" viewBox="0 0 82 82" fill="none" xmlns="http://www.w3.org/2000/svg">
<g filter="url(#filter0_d_4090_52388)">
<rect x="10" y="10" width="60" height="60" rx="25" fill="url(#paint0_radial_4090_52388)"/>
<rect x="10.5" y="10.5" width="59" height="59" rx="24.5" stroke="#FF6E0A"/>
</g>
<path d="M40.3 67C40.3 67.1105 40.3895 67.2 40.5 67.2C40.6105 67.2 40.7 67.1105 40.7 67H40.3ZM40.7 63.9817C40.7 63.8713 40.6105 63.7817 40.5 63.7817C40.3895 63.7817 40.3 63.8713 40.3 63.9817H40.7ZM40.3 15.0183C40.3 15.1287 40.3895 15.2183 40.5 15.2183C40.6105 15.2183 40.7 15.1287 40.7 15.0183H40.3ZM40.7 12C40.7 11.8895 40.6105 11.8 40.5 11.8C40.3895 11.8 40.3 11.8895 40.3 12H40.7ZM40.7 67V63.9817H40.3V67H40.7ZM40.7 15.0183V12H40.3V15.0183H40.7Z" fill="#414141"/>
<path d="M13 39.3C12.8895 39.3 12.8 39.3895 12.8 39.5C12.8 39.6105 12.8895 39.7 13 39.7L13 39.3ZM16.0183 39.7C16.1287 39.7 16.2183 39.6105 16.2183 39.5C16.2183 39.3895 16.1287 39.3 16.0183 39.3L16.0183 39.7ZM64.9817 39.3C64.8713 39.3 64.7817 39.3895 64.7817 39.5C64.7817 39.6105 64.8713 39.7 64.9817 39.7L64.9817 39.3ZM68 39.7C68.1105 39.7 68.2 39.6105 68.2 39.5C68.2 39.3895 68.1105 39.3 68 39.3L68 39.7ZM13 39.7L16.0183 39.7L16.0183 39.3L13 39.3L13 39.7ZM64.9817 39.7L68 39.7L68 39.3L64.9817 39.3L64.9817 39.7Z" fill="#414141"/>
<path d="M20.913 58.8041C20.8349 58.8822 20.8349 59.0089 20.913 59.087C20.9911 59.1651 21.1178 59.1651 21.1959 59.087L20.913 58.8041ZM23.3301 56.9527C23.4082 56.8746 23.4082 56.748 23.3301 56.6699C23.252 56.5918 23.1254 56.5918 23.0473 56.6699L23.3301 56.9527ZM57.6696 22.0475C57.5915 22.1256 57.5915 22.2523 57.6696 22.3304C57.7477 22.4085 57.8744 22.4085 57.9525 22.3304L57.6696 22.0475ZM60.0867 20.1961C60.1648 20.118 60.1648 19.9914 60.0867 19.9133C60.0086 19.8352 59.882 19.8352 59.8039 19.9133L60.0867 20.1961ZM21.1959 59.087L23.3301 56.9527L23.0473 56.6699L20.913 58.8041L21.1959 59.087ZM57.9525 22.3304L60.0867 20.1961L59.8039 19.9133L57.6696 22.0475L57.9525 22.3304Z" fill="#414141"/>
<path d="M21.1959 19.913C21.1178 19.8349 20.9911 19.8349 20.913 19.913C20.8349 19.9911 20.8349 20.1177 20.913 20.1959L21.1959 19.913ZM23.0473 22.3301C23.1254 22.4082 23.252 22.4082 23.3301 22.3301C23.4082 22.252 23.4082 22.1254 23.3301 22.0473L23.0473 22.3301ZM57.9525 56.6696C57.8744 56.5915 57.7477 56.5915 57.6696 56.6696C57.5915 56.7477 57.5915 56.8744 57.6696 56.9525L57.9525 56.6696ZM59.8039 59.0867C59.882 59.1648 60.0086 59.1648 60.0867 59.0867C60.1648 59.0086 60.1648 58.882 60.0867 58.8039L59.8039 59.0867ZM20.913 20.1959L23.0473 22.3301L23.3301 22.0473L21.1959 19.913L20.913 20.1959ZM57.6696 56.9525L59.8039 59.0867L60.0867 58.8039L57.9525 56.6696L57.6696 56.9525Z" fill="#414141"/>
<path d="M40.3 67C40.3 67.1105 40.3895 67.2 40.5 67.2C40.6105 67.2 40.7 67.1105 40.7 67H40.3ZM40.7 63.9817C40.7 63.8713 40.6105 63.7817 40.5 63.7817C40.3895 63.7817 40.3 63.8713 40.3 63.9817H40.7ZM40.3 15.0183C40.3 15.1287 40.3895 15.2183 40.5 15.2183C40.6105 15.2183 40.7 15.1287 40.7 15.0183H40.3ZM40.7 12C40.7 11.8895 40.6105 11.8 40.5 11.8C40.3895 11.8 40.3 11.8895 40.3 12H40.7ZM40.7 67V63.9817H40.3V67H40.7ZM40.7 15.0183V12H40.3V15.0183H40.7Z" fill="#414141"/>
<path d="M13 39.3C12.8895 39.3 12.8 39.3895 12.8 39.5C12.8 39.6105 12.8895 39.7 13 39.7L13 39.3ZM16.0183 39.7C16.1287 39.7 16.2183 39.6105 16.2183 39.5C16.2183 39.3895 16.1287 39.3 16.0183 39.3L16.0183 39.7ZM64.9817 39.3C64.8713 39.3 64.7817 39.3895 64.7817 39.5C64.7817 39.6105 64.8713 39.7 64.9817 39.7L64.9817 39.3ZM68 39.7C68.1105 39.7 68.2 39.6105 68.2 39.5C68.2 39.3895 68.1105 39.3 68 39.3L68 39.7ZM13 39.7L16.0183 39.7L16.0183 39.3L13 39.3L13 39.7ZM64.9817 39.7L68 39.7L68 39.3L64.9817 39.3L64.9817 39.7Z" fill="#414141"/>
<path d="M20.913 58.8041C20.8349 58.8822 20.8349 59.0089 20.913 59.087C20.9911 59.1651 21.1178 59.1651 21.1959 59.087L20.913 58.8041ZM23.3301 56.9527C23.4082 56.8746 23.4082 56.748 23.3301 56.6699C23.252 56.5918 23.1254 56.5918 23.0473 56.6699L23.3301 56.9527ZM57.6696 22.0475C57.5915 22.1256 57.5915 22.2523 57.6696 22.3304C57.7477 22.4085 57.8744 22.4085 57.9525 22.3304L57.6696 22.0475ZM60.0867 20.1961C60.1648 20.118 60.1648 19.9914 60.0867 19.9133C60.0086 19.8352 59.882 19.8352 59.8039 19.9133L60.0867 20.1961ZM21.1959 59.087L23.3301 56.9527L23.0473 56.6699L20.913 58.8041L21.1959 59.087ZM57.9525 22.3304L60.0867 20.1961L59.8039 19.9133L57.6696 22.0475L57.9525 22.3304Z" fill="#414141"/>
<path d="M21.1959 19.913C21.1178 19.8349 20.9911 19.8349 20.913 19.913C20.8349 19.9911 20.8349 20.1177 20.913 20.1959L21.1959 19.913ZM23.0473 22.3301C23.1254 22.4082 23.252 22.4082 23.3301 22.3301C23.4082 22.252 23.4082 22.1254 23.3301 22.0473L23.0473 22.3301ZM57.9525 56.6696C57.8744 56.5915 57.7477 56.5915 57.6696 56.6696C57.5915 56.7477 57.5915 56.8744 57.6696 56.9525L57.9525 56.6696ZM59.8039 59.0867C59.882 59.1648 60.0086 59.1648 60.0867 59.0867C60.1648 59.0086 60.1648 58.882 60.0867 58.8039L59.8039 59.0867ZM20.913 20.1959L23.0473 22.3301L23.3301 22.0473L21.1959 19.913L20.913 20.1959ZM57.6696 56.9525L59.8039 59.0867L60.0867 58.8039L57.9525 56.6696L57.6696 56.9525Z" fill="#414141"/>
<path d="M26.9232 15.584C26.868 15.4884 26.7457 15.4556 26.65 15.5108C26.5543 15.5661 26.5216 15.6884 26.5768 15.784L26.9232 15.584ZM54.0768 63.4154C54.132 63.5111 54.2543 63.5439 54.35 63.4886C54.4457 63.4334 54.4784 63.3111 54.4232 63.2154L54.0768 63.4154ZM27.3314 17.091C27.3866 17.1867 27.5089 17.2194 27.6046 17.1642C27.7002 17.109 27.733 16.9867 27.6778 16.891L27.3314 17.091ZM53.6686 61.9085C53.6134 61.8128 53.4911 61.78 53.3954 61.8353C53.2998 61.8905 53.267 62.0128 53.3222 62.1085L53.6686 61.9085ZM26.5768 15.784L27.3314 17.091L27.6778 16.891L26.9232 15.584L26.5768 15.784ZM53.3222 62.1085L54.0768 63.4154L54.4232 63.2154L53.6686 61.9085L53.3222 62.1085Z" fill="#B7B7B7"/>
<path d="M54.0768 15.584C54.132 15.4884 54.2543 15.4556 54.35 15.5108C54.4457 15.566 54.4784 15.6884 54.4232 15.784L54.0768 15.584ZM26.9232 63.4154C26.868 63.5111 26.7457 63.5439 26.65 63.4886C26.5543 63.4334 26.5216 63.3111 26.5768 63.2154L26.9232 63.4154ZM53.6686 17.091C53.6134 17.1866 53.4911 17.2194 53.3954 17.1642C53.2998 17.109 53.267 16.9866 53.3222 16.891L53.6686 17.091ZM27.3314 61.9085C27.3866 61.8128 27.5089 61.78 27.6046 61.8353C27.7002 61.8905 27.733 62.0128 27.6778 62.1085L27.3314 61.9085ZM54.4232 15.784L53.6686 17.091L53.3222 16.891L54.0768 15.584L54.4232 15.784ZM27.6778 62.1085L26.9232 63.4154L26.5768 63.2154L27.3314 61.9085L27.6778 62.1085Z" fill="#B7B7B7"/>
<path d="M47.4247 12.8858C47.4533 12.7791 47.5629 12.7158 47.6696 12.7444C47.7763 12.773 47.8396 12.8826 47.811 12.9893L47.4247 12.8858ZM33.576 66.1152C33.5474 66.2219 33.4377 66.2853 33.331 66.2567C33.2244 66.2281 33.161 66.1184 33.1896 66.0117L33.576 66.1152ZM47.4204 14.447C47.3919 14.5537 47.2822 14.6171 47.1755 14.5885C47.0688 14.5599 47.0055 14.4502 47.0341 14.3435L47.4204 14.447ZM33.5802 64.554C33.6088 64.4473 33.7185 64.384 33.8252 64.4126C33.9319 64.4412 33.9952 64.5508 33.9666 64.6575L33.5802 64.554ZM47.811 12.9893L47.4204 14.447L47.0341 14.3435L47.4247 12.8858L47.811 12.9893ZM33.9666 64.6575L33.576 66.1152L33.1896 66.0117L33.5802 64.554L33.9666 64.6575Z" fill="#B7B7B7"/>
<path d="M33.189 12.9893C33.1604 12.8826 33.2237 12.773 33.3304 12.7444C33.4371 12.7158 33.5467 12.7791 33.5753 12.8858L33.189 12.9893ZM47.8104 66.0117C47.839 66.1184 47.7756 66.2281 47.669 66.2567C47.5623 66.2853 47.4526 66.2219 47.424 66.1152L47.8104 66.0117ZM33.9659 14.3435C33.9945 14.4502 33.9312 14.5599 33.8245 14.5885C33.7178 14.6171 33.6081 14.5537 33.5795 14.447L33.9659 14.3435ZM47.0334 64.6575C47.0048 64.5508 47.0681 64.4412 47.1748 64.4126C47.2815 64.384 47.3912 64.4473 47.4198 64.554L47.0334 64.6575ZM33.5753 12.8858L33.9659 14.3435L33.5795 14.447L33.189 12.9893L33.5753 12.8858ZM47.4198 64.554L47.8104 66.0117L47.424 66.1152L47.0334 64.6575L47.4198 64.554Z" fill="#B7B7B7"/>
<path d="M13.8848 32.5753C13.7781 32.5467 13.7148 32.4371 13.7434 32.3304C13.772 32.2237 13.8817 32.1604 13.9884 32.189L13.8848 32.5753ZM67.1143 46.424C67.221 46.4526 67.2843 46.5623 67.2557 46.669C67.2271 46.7756 67.1174 46.839 67.0107 46.8104L67.1143 46.424ZM15.4461 32.5795C15.5528 32.6081 15.6161 32.7178 15.5875 32.8245C15.5589 32.9312 15.4492 32.9945 15.3425 32.9659L15.4461 32.5795ZM65.553 46.4198C65.4463 46.3912 65.383 46.2815 65.4116 46.1748C65.4402 46.0681 65.5498 46.0048 65.6565 46.0334L65.553 46.4198ZM13.9884 32.189L15.4461 32.5795L15.3425 32.9659L13.8848 32.5753L13.9884 32.189ZM65.6565 46.0334L67.1143 46.424L67.0107 46.8104L65.553 46.4198L65.6565 46.0334Z" fill="#B7B7B7"/>
<path d="M13.9884 46.811C13.8817 46.8396 13.772 46.7763 13.7434 46.6696C13.7148 46.5629 13.7781 46.4533 13.8848 46.4247L13.9884 46.811ZM67.0107 32.1896C67.1174 32.161 67.2271 32.2244 67.2557 32.331C67.2843 32.4377 67.221 32.5474 67.1143 32.576L67.0107 32.1896ZM15.3425 46.0341C15.4492 46.0055 15.5589 46.0688 15.5875 46.1755C15.6161 46.2822 15.5528 46.3919 15.4461 46.4204L15.3425 46.0341ZM65.6565 32.9666C65.5498 32.9952 65.4402 32.9319 65.4116 32.8252C65.383 32.7185 65.4463 32.6088 65.553 32.5802L65.6565 32.9666ZM13.8848 46.4247L15.3425 46.0341L15.4461 46.4204L13.9884 46.811L13.8848 46.4247ZM65.553 32.5802L67.0107 32.1896L67.1143 32.576L65.6565 32.9666L65.553 32.5802Z" fill="#B7B7B7"/>
<path d="M16.584 25.9232C16.4884 25.868 16.4556 25.7457 16.5108 25.65C16.5661 25.5543 16.6884 25.5216 16.784 25.5768L16.584 25.9232ZM64.4154 53.0768C64.5111 53.132 64.5439 53.2543 64.4886 53.35C64.4334 53.4457 64.3111 53.4784 64.2154 53.4232L64.4154 53.0768ZM18.091 26.3314C18.1866 26.3866 18.2194 26.5089 18.1642 26.6046C18.109 26.7002 17.9866 26.733 17.891 26.6778L18.091 26.3314ZM62.9085 52.6686C62.8128 52.6134 62.78 52.4911 62.8353 52.3954C62.8905 52.2998 63.0128 52.267 63.1085 52.3222L62.9085 52.6686ZM16.784 25.5768L18.091 26.3314L17.891 26.6778L16.584 25.9232L16.784 25.5768ZM63.1085 52.3222L64.4154 53.0768L64.2154 53.4232L62.9085 52.6686L63.1085 52.3222Z" fill="#B7B7B7"/>
<path d="M16.585 53.0768C16.4893 53.132 16.4566 53.2543 16.5118 53.35C16.567 53.4457 16.6893 53.4784 16.785 53.4232L16.585 53.0768ZM64.4164 25.9232C64.5121 25.868 64.5448 25.7457 64.4896 25.65C64.4344 25.5543 64.3121 25.5216 64.2164 25.5768L64.4164 25.9232ZM18.092 52.6686C18.1876 52.6134 18.2204 52.4911 18.1652 52.3954C18.1099 52.2998 17.9876 52.267 17.892 52.3222L18.092 52.6686ZM62.9094 26.3314C62.8138 26.3866 62.781 26.5089 62.8362 26.6046C62.8915 26.7002 63.0138 26.733 63.1094 26.6778L62.9094 26.3314ZM16.785 53.4232L18.092 52.6686L17.892 52.3222L16.585 53.0768L16.785 53.4232ZM63.1094 26.6778L64.4164 25.9232L64.2164 25.5768L62.9094 26.3314L63.1094 26.6778Z" fill="#B7B7B7"/>
<path d="M26.6661 32.8219C27.8782 32.0561 31.0054 30.9191 33.8177 32.4974" stroke="url(#paint1_linear_4090_52388)" stroke-width="1.3" stroke-linecap="round"/>
<path d="M54.1771 32.9011C52.943 32.1713 49.7837 31.1267 47.0191 32.787" stroke="url(#paint2_linear_4090_52388)" stroke-width="1.3" stroke-linecap="round"/>
<path d="M41.9842 55.1143C40.2238 55.1143 38 54.0935 38 52.8344C38 51.3145 41.111 50.7835 42.781 51.3145C45.1715 52.0746 43.5778 55.1143 41.9842 55.1143Z" fill="url(#paint3_linear_4090_52388)"/>
<path d="M56.0882 39.6432C56.0882 39.6432 53.9042 43.6326 51.1505 44.0195C48.3968 44.4065 46.1162 41.0446 46.1162 41.0446C46.0094 39.6124 48.2358 42.432 50.9598 42.0491C53.7135 41.6622 55.5307 38.178 56.0882 39.6432Z" fill="url(#paint4_linear_4090_52388)"/>
<path d="M25.0993 39.6432C25.0993 39.6432 27.2833 43.6326 30.037 44.0195C32.7907 44.4065 35.0713 41.0446 35.0713 41.0446C35.1781 39.6124 32.9517 42.432 30.2277 42.0491C27.474 41.6622 25.6568 38.178 25.0993 39.6432Z" fill="url(#paint5_linear_4090_52388)"/>
<ellipse cx="40.518" cy="42.489" rx="0.844221" ry="1.26633" fill="#B82100"/>
<defs>
<filter id="filter0_d_4090_52388" x="0" y="0" width="82" height="82" filterUnits="userSpaceOnUse" color-interpolation-filters="sRGB">
<feFlood flood-opacity="0" result="BackgroundImageFix"/>
<feColorMatrix in="SourceAlpha" type="matrix" values="0 0 0 0 0 0 0 0 0 0 0 0 0 0 0 0 0 0 127 0" result="hardAlpha"/>
<feOffset dx="1" dy="1"/>
<feGaussianBlur stdDeviation="5.5"/>
<feComposite in2="hardAlpha" operator="out"/>
<feColorMatrix type="matrix" values="0 0 0 0 0 0 0 0 0 0 0 0 0 0 0 0 0 0 0.28 0"/>
<feBlend mode="normal" in2="BackgroundImageFix" result="effect1_dropShadow_4090_52388"/>
<feBlend mode="normal" in="SourceGraphic" in2="effect1_dropShadow_4090_52388" result="shape"/>
</filter>
<radialGradient id="paint0_radial_4090_52388" cx="0" cy="0" r="1" gradientUnits="userSpaceOnUse" gradientTransform="translate(38 37) rotate(86.5318) scale(33.0605)">
<stop offset="0.489642" stop-color="white"/>
<stop offset="1" stop-color="#FFEFCE"/>
</radialGradient>
<linearGradient id="paint1_linear_4090_52388" x1="30.826" y1="31.2268" x2="29.6757" y2="34.0487" gradientUnits="userSpaceOnUse">
<stop stop-color="#494865"/>
<stop offset="0.958835" stop-color="#2B2A3E"/>
</linearGradient>
<linearGradient id="paint2_linear_4090_52388" x1="49.9721" y1="31.429" x2="51.2049" y2="34.2159" gradientUnits="userSpaceOnUse">
<stop stop-color="#494865"/>
<stop offset="0.958835" stop-color="#2B2A3E"/>
</linearGradient>
<linearGradient id="paint3_linear_4090_52388" x1="41.1873" y1="51.1143" x2="44.8296" y2="54.4115" gradientUnits="userSpaceOnUse">
<stop stop-color="#9D4949"/>
<stop offset="1" stop-color="#370D0D"/>
</linearGradient>
<linearGradient id="paint4_linear_4090_52388" x1="51.008" y1="39.6747" x2="51.196" y2="41.013" gradientUnits="userSpaceOnUse">
<stop stop-color="#6B717D"/>
<stop offset="1" stop-color="#1D2739"/>
</linearGradient>
<linearGradient id="paint5_linear_4090_52388" x1="30.1795" y1="39.6747" x2="29.9915" y2="41.013" gradientUnits="userSpaceOnUse">
<stop stop-color="#6B717D"/>
<stop offset="1" stop-color="#1D2739"/>
</linearGradient>
</defs>
</svg>
